<svg version="1.1" id="Layer_1" xmlns="http://www.w3.org/2000/svg" xmlns:xlink="http://www.w3.org/1999/xlink" x="0px" y="0px"
	 width="100%" viewBox="0 0 1024 1024" enable-background="new 0 0 1024 1024" xml:space="preserve">
<path fill="#000000" opacity="1.000000" stroke="none"
	d="
M577.995117,299.995911
	C582.627991,303.571320 588.301147,305.246002 593.155640,308.514435
	C608.646606,318.944183 620.457581,332.228668 627.120483,349.884277
	C633.615967,367.096161 643.575623,382.583160 651.894348,398.886719
	C660.976990,416.687347 670.361328,434.334137 679.630432,452.039490
	C684.358032,461.069977 683.627014,469.562134 677.477417,477.730225
	C672.850830,483.875427 667.895325,489.667023 661.890381,494.521271
	C652.075378,502.455597 642.695984,502.693329 633.020447,494.477448
	C627.196655,489.532196 621.838745,483.994537 616.592773,478.420715
	C600.666809,461.499573 581.374268,450.947937 558.587646,446.335724
	C529.068604,440.360779 508.369598,418.798431 506.585419,387.010834
	C506.493256,385.368347 506.051727,383.745453 505.579681,380.982971
	C499.378937,400.932159 499.834930,419.581421 507.164917,437.988770
	C514.119629,455.453888 526.406982,468.995331 539.843628,481.624115
	C557.547607,498.263672 576.482483,513.673035 591.470215,533.027161
	C607.797668,554.111145 618.433533,577.268066 617.389893,604.682617
	C617.130127,611.505127 617.078552,618.360352 617.442139,625.173340
	C617.696716,629.945129 616.180542,631.462646 611.312500,631.428467
	C581.818115,631.220886 552.321533,631.311035 522.825684,631.312439
	C499.995605,631.313538 477.165497,631.341858 454.335449,631.317261
	C452.551147,631.315369 450.666534,631.773743 448.822052,630.580505
	C448.769257,627.811035 450.699615,625.765198 451.725220,623.401794
	C458.673676,607.389587 461.238007,590.757019 460.107635,573.303894
	C458.600067,550.026306 449.230408,529.233398 440.790894,508.079681
	C430.032013,481.112579 424.921387,453.036346 426.878754,424.089966
	C429.363586,387.343201 441.830017,354.335266 466.837006,326.276215
	C466.988342,325.999664 466.958252,326.028381 467.231750,325.980438
	C468.425018,325.864777 469.827271,325.413513 469.317963,327.094971
	C469.003998,328.131592 467.982544,328.968048 467.234222,329.856903
	C449.060852,351.443359 436.834564,375.906982 432.039825,403.809784
	C428.670105,423.419983 428.501343,443.014008 431.363800,462.857391
	C434.297363,483.194000 441.041260,502.144958 448.692596,520.955627
	C453.323395,532.340393 457.603180,543.809448 460.099457,555.950134
	C464.347351,576.609985 463.214386,597.016113 458.102264,617.264099
	C456.366150,624.140381 458.031433,627.845886 465.102386,628.013000
	C483.059540,628.437439 501.029541,628.721619 518.989197,628.542358
	C546.963806,628.263184 574.933960,627.391418 602.905640,628.654663
	C604.900513,628.744751 606.908813,628.769531 608.900635,628.651611
	C612.892700,628.415222 615.321960,626.925354 615.044250,622.208557
	C614.692322,616.230896 614.682800,610.205688 614.971985,604.222534
	C616.067444,581.553223 608.125671,561.720886 595.758789,543.408264
	C582.401794,523.629578 564.975830,507.548981 547.063721,492.089172
	C534.118225,480.915955 522.154114,468.948883 512.943909,454.537170
	C498.490021,431.920380 495.260712,407.546448 502.833069,381.798248
	C503.334381,380.093719 503.466064,377.263763 506.211975,377.665405
	C508.882629,378.056091 508.324463,380.712830 508.444092,382.596130
	C508.942261,390.436920 510.060547,398.224396 512.858398,405.534149
	C520.964172,426.711334 536.684753,439.318756 558.639465,443.738251
	C583.026672,448.647400 603.403992,460.224304 620.331421,478.278015
	C625.108948,483.373383 629.976685,488.438812 635.249756,493.001678
	C642.467224,499.247040 651.858582,499.565247 658.591309,493.730408
	C664.483643,488.623871 669.955566,483.062897 674.797363,476.826691
	C680.978577,468.865234 681.503174,460.866119 676.909912,452.177429
	C665.239258,430.100616 653.541931,408.037659 641.963989,385.912231
	C636.104980,374.715790 629.788086,363.784851 624.979980,352.008362
	C617.853271,334.552765 607.086426,319.833191 590.379822,310.046875
	C586.640198,307.856293 582.695007,306.100342 579.001770,303.864838
	C577.489685,302.949554 575.344055,302.057831 578.002441,300.001831
	C578.000000,300.000000 577.995117,299.995911 577.995117,299.995911
z"/>
<path fill="#000000" opacity="1.000000" stroke="none"
	d="
M467.002014,325.983826
	C446.129639,339.427002 431.888428,358.420105 422.602448,381.058716
	C414.111877,401.758179 410.850159,423.553436 411.247894,445.963837
	C411.685242,470.608124 417.172333,494.063110 427.074249,516.514709
	C436.980072,538.975098 442.086029,562.297546 440.272186,586.896912
	C439.862366,592.455505 438.670319,597.956421 437.792267,603.790283
	C431.378448,602.546692 426.567505,599.253601 421.742950,596.123108
	C409.717163,588.320007 398.230621,579.859314 387.953125,569.743347
	C373.424622,555.443176 365.431671,538.272278 363.718658,518.050110
	C362.441315,502.971375 361.037537,487.897247 361.660767,472.736420
	C363.496948,428.069061 374.246002,386.216370 401.546417,349.887054
	C427.202454,315.745972 461.297333,295.080597 503.372070,287.653381
	C512.735596,286.000519 522.194946,285.378540 531.687500,285.714142
	C535.438843,285.846771 538.153259,284.830963 540.824890,281.939911
	C554.523560,267.116272 571.141296,256.021332 588.287170,245.659286
	C589.135315,245.146713 590.081360,244.778717 591.014771,244.432312
	C591.447815,244.271606 591.960144,244.324631 593.221619,244.208450
	C593.010925,261.985016 596.066650,280.005005 583.919617,295.467133
	C582.498779,297.275818 581.208862,299.330475 578.337708,299.926514
	C577.995117,299.995911 578.000000,300.000000 578.039307,299.697601
	C577.267639,295.334015 577.897522,292.230988 580.979858,288.673859
	C583.581482,285.671539 589.481445,284.794739 588.462463,278.734344
	C587.690552,279.175323 587.628357,280.679047 586.125244,280.248138
	C586.605652,276.698547 587.089172,273.125732 587.572754,269.552948
	C587.853333,269.577545 588.133972,269.602173 588.414551,269.626770
	C588.770081,270.881622 589.125610,272.136444 589.481140,273.391296
	C589.932129,267.732452 591.432495,262.270782 590.179932,256.232941
	C588.334656,258.972565 589.616699,261.661835 588.357605,264.501465
	C586.981628,259.912140 585.740234,255.771896 584.443848,251.447983
	C582.117493,253.070709 579.678345,254.122238 579.051575,256.818756
	C578.365906,259.768524 576.004883,261.147369 573.644653,261.316650
	C569.062012,261.645294 566.039124,263.106628 566.131042,268.900909
	C561.987244,265.786255 559.670227,268.368073 557.123413,270.468933
	C551.341125,275.238861 545.775879,280.200775 540.807373,285.859070
	C538.784546,288.162781 536.272217,290.629028 532.778076,290.258636
	C526.112061,289.552063 520.034729,292.096619 513.717957,293.301941
	C511.738434,293.679718 509.670959,294.385406 507.811249,293.596252
	C500.266602,290.394836 492.798279,292.580902 485.707306,294.517822
	C458.563812,301.932037 435.669617,316.655975 416.233704,336.824341
	C400.568329,353.080109 388.831665,371.839142 380.370148,392.807312
	C372.135132,413.214203 367.110168,434.222473 365.986328,456.210144
	C365.629120,463.199005 365.338074,470.049683 366.720398,477.035706
	C367.758545,482.282379 364.575928,487.562408 364.640289,492.713379
	C364.820740,507.153961 365.131165,521.850220 369.652832,535.645020
	C379.743805,566.430847 405.147278,582.765686 431.014679,598.405518
	C432.234680,599.143127 433.874634,599.479187 434.406647,597.822510
	C435.320190,594.978088 438.057404,592.579895 436.497681,589.051086
	C434.945404,585.539124 435.379974,581.947449 436.625458,578.143005
	C437.270844,580.115173 436.376923,582.084839 437.825867,584.196167
	C438.098419,580.320557 438.681152,576.990662 438.505859,573.701172
	C437.549225,555.748962 433.769775,538.355530 426.422699,521.951965
	C411.421997,488.460266 405.849792,453.602661 410.676086,417.231598
	C415.923920,377.683807 433.474060,345.277557 466.941925,322.402679
	C468.482788,321.349518 470.083496,320.125092 472.545898,321.339722
	C470.448120,323.099976 468.703186,324.564178 466.958252,326.028381
	C466.958252,326.028381 466.988342,325.999664 467.002014,325.983826
z"/>
<path fill="#000000" opacity="1.000000" stroke="none"
	d="
M638.894836,691.116699
	C642.400391,695.627441 646.215393,699.353027 650.315491,702.767761
	C652.394104,704.498901 653.439331,706.428040 653.384949,709.201477
	C653.250916,716.030823 653.220764,722.867065 653.379822,729.695190
	C653.459534,733.118225 652.237793,734.447510 648.736694,734.371948
	C640.575623,734.195618 632.408020,734.315979 624.243103,734.316223
	C552.424805,734.318787 480.606476,734.322937 408.788177,734.322021
	C400.853729,734.321960 400.845520,734.308960 400.803772,726.614502
	C400.773926,721.116089 400.889343,715.613708 400.709320,710.120605
	C400.601990,706.845520 401.702515,704.368225 404.148834,702.237976
	C419.235992,689.099976 429.623413,672.895020 435.276428,653.724854
	C436.216095,650.538269 437.877716,649.616028 440.997559,649.619202
	C498.652100,649.678467 556.306763,649.675659 613.961365,649.612671
	C616.893921,649.609497 618.592834,650.402466 619.293518,653.455200
	C622.532776,667.568237 629.895447,679.579163 638.894836,691.116699
M462.500031,652.150269
	C456.167419,652.141418 449.826965,652.319214 443.505127,652.054077
	C439.687134,651.893982 437.747437,653.316284 436.668243,656.958374
	C432.387299,671.405762 425.602661,684.777344 414.648468,695.048340
	C405.719604,703.420288 402.082123,712.545227 403.091339,724.515137
	C403.679230,731.488098 403.140533,731.775757 410.294495,731.775146
	C487.785919,731.768433 565.277344,731.762817 642.768738,731.752686
	C644.434570,731.752441 646.100891,731.718628 647.766174,731.671753
	C649.225037,731.630737 650.662476,731.145142 650.569946,729.496460
	C649.995300,719.258545 655.455566,707.584412 643.525085,699.975037
	C641.758972,698.848572 640.482788,696.912720 639.078552,695.267151
	C629.460388,683.995789 621.782227,671.591492 617.630310,657.266113
	C616.504578,653.382080 614.465881,651.680542 610.475037,652.104736
	C608.995178,652.262085 607.479248,652.056580 605.979797,652.057373
	C558.486511,652.082947 510.993256,652.113464 462.500031,652.150269
z"/>
<path fill="#000000" opacity="1.000000" stroke="none"
	d="
M582.626282,798.755249
	C567.082520,798.825012 551.938965,798.895447 536.795410,798.905334
	C509.848358,798.922913 482.892853,799.313110 455.957336,798.753906
	C438.474854,798.390869 421.000549,798.948425 403.528900,798.425964
	C395.728455,798.192688 394.040955,796.026733 395.425964,788.106201
	C397.272797,795.143799 399.310059,796.738220 406.511780,796.582642
	C447.303589,795.701294 488.101410,796.062561 528.896790,795.997253
	C557.550659,795.951416 586.204895,796.013428 614.858704,796.114929
	C626.000488,796.154358 637.140991,796.480347 648.282959,796.586487
	C654.257751,796.643372 656.051514,795.354736 656.173340,789.504761
	C656.374084,779.862671 656.051697,770.204834 655.757751,760.559448
	C655.625305,756.212708 652.659668,755.311096 648.822937,755.327576
	C629.664734,755.409790 610.505981,755.347229 591.347412,755.347961
	C529.540100,755.350281 467.732758,755.355408 405.925415,755.367004
	C397.816467,755.368530 396.387726,756.832642 396.382965,765.014648
	C396.380371,769.497803 396.382507,773.980896 395.767456,778.477051
	C394.514893,771.782104 394.230896,765.007263 394.904541,758.304077
	C395.352966,753.842224 399.053253,752.767822 403.098999,752.780029
	C417.759308,752.824402 432.419800,752.835999 447.080200,752.828796
	C514.717590,752.795532 582.354919,752.753479 649.992310,752.709167
	C655.837463,752.705322 658.260742,754.932678 658.289490,760.753967
	C658.338074,770.582581 658.291931,780.412354 658.195984,790.240784
	C658.138245,796.155090 656.013794,798.306763 649.949829,798.350708
	C636.622925,798.447205 623.294800,798.356140 609.967529,798.414978
	C600.986877,798.454651 592.006836,798.619629 582.626282,798.755249
z"/>
<path fill="#000000" opacity="1.000000" stroke="none"
	d="
M571.703918,375.159729
	C568.928528,371.047394 567.734070,366.782867 567.161011,362.263397
	C566.510193,357.130066 568.711670,353.922241 573.615295,354.856628
	C583.952515,356.826263 594.591431,358.127563 601.946838,367.556915
	C605.948547,372.686890 607.737427,378.299591 609.015991,384.314575
	C609.532593,386.744781 608.153687,388.197144 605.727417,388.246399
	C592.757446,388.509735 580.336853,387.239594 571.703918,375.159729
M577.109253,377.388062
	C585.407715,385.140686 595.226440,386.749329 606.030823,385.072235
	C604.777588,368.067230 588.432556,355.455048 572.217346,358.396942
	C569.829712,358.830109 569.279907,359.982422 569.683716,362.223328
	C570.679321,367.748993 572.848022,372.677094 577.109253,377.388062
z"/>
</svg>
