<?xml version="1.0" standalone="no"?>
<!DOCTYPE svg PUBLIC "-//W3C//DTD SVG 20010904//EN"
 "http://www.w3.org/TR/2001/REC-SVG-20010904/DTD/svg10.dtd">
<svg version="1.0" xmlns="http://www.w3.org/2000/svg"
 width="1024.000000pt" height="1024.000000pt" viewBox="0 0 1024.000000 1024.000000"
 preserveAspectRatio="xMidYMid meet">

<g transform="translate(0.000000,1024.000000) scale(0.100000,-0.100000)"
fill="#000000" stroke="none">
<path d="M5885 7796 c-11 -8 -65 -43 -120 -78 -122 -79 -284 -207 -346 -275
l-47 -50 -145 -6 c-174 -8 -276 -26 -422 -74 -324 -106 -583 -290 -796 -568
-147 -192 -282 -491 -339 -755 -42 -189 -54 -318 -54 -560 0 -371 37 -574 129
-715 59 -91 244 -269 370 -356 147 -102 244 -155 249 -137 12 38 26 181 26
271 0 185 -34 332 -133 583 -74 185 -93 246 -124 394 -25 115 -27 144 -27 355
0 202 2 243 22 335 77 352 224 603 461 786 53 41 100 74 104 74 5 0 -14 -25
-41 -56 -285 -320 -424 -762 -383 -1227 20 -228 55 -360 181 -682 91 -232 126
-357 142 -507 19 -181 -15 -405 -82 -539 -17 -32 -30 -61 -30 -64 0 -3 378 -5
840 -5 l840 0 0 184 c0 272 -20 367 -116 561 -95 192 -224 345 -513 606 -316
287 -422 421 -492 626 -32 94 -33 104 -34 248 0 114 4 167 19 223 10 40 22 75
27 78 5 3 9 -19 9 -50 0 -164 67 -332 178 -444 92 -93 188 -141 380 -192 246
-64 371 -139 590 -354 72 -72 151 -141 174 -153 87 -48 163 -24 274 86 140
137 177 226 139 329 -18 47 -106 217 -370 717 -79 149 -157 307 -174 351 -39
101 -89 180 -171 267 -66 71 -213 177 -274 197 -42 13 -44 20 -15 46 36 32 79
102 101 162 15 45 21 92 25 220 3 92 2 162 -3 161 -5 0 -18 -6 -29 -13z m3
-1156 c70 -30 136 -102 156 -171 24 -81 26 -79 -59 -79 -98 0 -174 28 -229 85
-42 43 -76 118 -76 169 l0 29 78 -5 c48 -4 98 -14 130 -28z"/>
<path d="M4339 3683 c-50 -155 -143 -303 -264 -423 l-75 -74 0 -138 0 -138
1260 0 1260 0 0 136 0 137 -83 86 c-128 133 -222 291 -259 433 l-12 48 -902 0
-902 0 -23 -67z"/>
<path d="M3966 2699 l-26 -20 0 -185 c0 -171 1 -185 20 -204 20 -20 33 -20
1295 -20 1262 0 1275 0 1295 20 19 19 20 33 20 204 l0 185 -26 20 c-27 21 -27
21 -1289 21 -1262 0 -1262 0 -1289 -21z"/>
</g>
</svg>
