<svg xmlns="http://www.w3.org/2000/svg" viewBox="0 0 64 64" fill="#1a8fa0">
  <path d="M32 4c2 0 3.5 1 4 2.5l.5 1.5c.5 1 1.5 2 2.5 2.5 1.5.5 2.5-.5 2.5-2v-2c0-1.5 1-2.5 2.5-2.5s2.5 1 2.5 2.5c0 2-.5 4-1.5 6l-1 2.5c2 1 4 2.5 5 4.5l1.5 2.5c.5 1 1.5 1.5 2.5 1.5h1.5c1.5 0 2.5 1 2.5 2.5s-1 2.5-2.5 2.5h-2c-1 0-1.5 1-1.5 2v2c0 1.5-1 2.5-2.5 2.5s-2.5-1-2.5-2.5v-2c0-1-1-1.5-2-1.5h-3l-1.5 8c-.5 2-2.5 3.5-4.5 3.5h-3c-2 0-4-1.5-4.5-3.5l-1.5-8h-3c-1 0-2 .5-2 1.5v2c0 1.5-1 2.5-2.5 2.5s-2.5-1-2.5-2.5v-2c0-1-.5-2-1.5-2h-2c-1.5 0-2.5-1-2.5-2.5s1-2.5 2.5-2.5h1.5c1 0 2-.5 2.5-1.5l1.5-2.5c1-2 3-3.5 5-4.5l-1-2.5c-1-2-1.5-4-1.5-6 0-1.5 1-2.5 2.5-2.5s2.5 1 2.5 2.5v2c0 1.5 1 2.5 2.5 2 1-.5 2-1.5 2.5-2.5l.5-1.5C28.5 5 30 4 32 4zM20 48h24v4H20v-4zm-2 8h28v4H18v-4z"/>
</svg>
