<svg width="1024" height="1024" viewBox="0 0 1024 1024" fill="none" xmlns="http://www.w3.org/2000/svg">
  <path d="M400 240C400 210 420 190 450 200L480 210C490 215 500 225 505 235L530 280C535 290 545 295 555 295C570 295 580 285 580 270L575 240C575 225 585 215 600 215C615 215 625 225 625 240C625 265 620 290 610 315L600 340C640 360 670 385 690 420L710 450C715 460 725 465 735 465L755 460C770 455 785 465 785 480C785 495 775 505 760 510L735 515C725 520 720 530 720 540L725 570C730 585 720 600 705 605C690 610 675 600 670 585L665 555C660 545 650 540 640 540L600 545L580 650C575 670 555 685 535 685H490C470 685 450 670 445 650L425 545L385 540C375 540 365 545 360 555L355 585C350 600 335 610 320 605C305 600 295 585 300 570L305 540C305 530 300 520 290 515L265 510C250 505 240 495 240 480C240 465 250 455 265 460L285 465C295 465 305 460 310 450L330 420C350 385 380 360 420 340L410 315C400 290 395 265 395 240H400ZM395 750H630V820H395V750ZM375 870H650V950H375V870Z" fill="#1a8fa0"/>
</svg>
